<svg xmlns="http://www.w3.org/2000/svg" viewBox="0 0 611.998 386.059"><defs><style>.a{fill:#fff;}</style></defs><g transform="translate(0 -112.969)"><path class="a" d="M194.016,310.626H92.89a13.248,13.248,0,0,0-13.242,13.242v92.85A13.246,13.246,0,0,0,92.89,429.96h89.553l3.933.027,2.82-.041c34.746-.781,54.675-22.061,54.675-58.381C243.884,323.366,211.3,310.626,194.016,310.626Zm-5.363,92.852H106.132V337.11H193.99c3.906.066,23.4,2.064,23.4,34.467C217.4,399.054,203.563,403.159,188.653,403.478ZM92.89,283.561h94.863c29.661,0,44.082-17.876,44.082-54.622,0-39.062-24.735-49.378-37.818-49.378H92.89A13.247,13.247,0,0,0,79.648,192.8v77.516A13.239,13.239,0,0,0,92.89,283.561Zm13.241-77.516h87.884c.12,0,11.335.251,11.335,22.9,0,28.138-8.157,28.138-17.6,28.138H106.131V206.045ZM278.96,286.779c14.619-12.1,26.6-32.031,26.6-63.229,0-64.249-43.79-105.748-111.547-105.748H13.242A13.248,13.248,0,0,0,0,131.044V478.438a13.245,13.245,0,0,0,13.242,13.24H193.593c.146,0,1.509.027,1.642.027h0c8.21,0,37.169-1.125,65.109-15.428,26.126-13.373,57.257-41.656,57.23-99.615.105-2.014,2.437-49.748-24.974-78.748A66.061,66.061,0,0,0,278.96,286.779Zm12.17,89.142c0,36.389-14.407,62.223-42.837,76.775-23.252,11.918-48.266,12.514-53.046,12.514h0l-1.231-.014H26.483V144.286H194.015c53.271,0,85.064,29.634,85.064,79.264,0,47.855-36.68,52.542-40.758,52.913a13.24,13.24,0,0,0,.993,26.444c14.486,0,25.609,4.291,34,13.123C292.891,336.659,291.169,374.821,291.13,375.921ZM610.914,359.29c.41-3.111,9.494-77.013-33.1-125.557-23.411-26.668-57.376-40.2-100.954-40.2-75.769,0-111.8,40.281-128.682,74.061-17.863,35.766-18.035,71.173-18.009,71.823-.186,2.912-3.986,71.822,39.884,118.551,25.5,27.158,61.4,40.943,105.945,40.943h.106s2.013.119,5.548.119c61.561,0,127.345-27.768,127.345-105.707a13.246,13.246,0,0,0-13.241-13.242H534.59a13.368,13.368,0,0,0-9.429,4.053,13.5,13.5,0,0,0-3.8,9.6,22.8,22.8,0,0,1-6.3,15.162c-6.674,6.793-18.34,9.744-35.236,8.566-21.451-1.5-44.2-6.674-48.2-46.65H597.778A13.231,13.231,0,0,0,610.914,359.29Zm-25.529-14.949H417.759a13.245,13.245,0,0,0-13.241,13.24c0,81.2,55.3,85.051,73.464,86.322,25.928,1.814,44.108-4,56.449-16.922a48.22,48.22,0,0,0,11.547-20.393h35.686c-3.35,24.854-16.618,42.506-40.307,53.734-23.318,11.057-49.523,12.248-59.707,12.248-2.423,0-3.88-.066-4.793-.092-37.659,0-67.056-10.926-87.382-32.482-36.03-38.242-32.9-98.3-32.852-99.7.026-4.912,1.774-120.261,120.233-120.261,35.554,0,62.792,10.461,80.959,31.078C583.649,280.449,585.928,323.829,585.385,344.341ZM478.221,244.432c-51.563,0-71.121,42.492-74.26,64.963a13.248,13.248,0,0,0,13.109,15.069H531.186A13.244,13.244,0,0,0,544.427,311.4c.014-1.191.159-29.529-19.174-49.1C513.575,250.431,497.738,244.432,478.221,244.432ZM434.96,297.981c5.721-12.1,17.916-27.065,43.26-27.065,12.275,0,21.452,3.231,28.072,9.852,5.1,5.1,7.959,11.573,9.574,17.214H434.96ZM402.121,182.236H545.447a13.246,13.246,0,0,0,13.242-13.242V126.211a13.247,13.247,0,0,0-13.242-13.242H402.121a13.246,13.246,0,0,0-13.242,13.242v42.783A13.247,13.247,0,0,0,402.121,182.236Zm13.241-42.783H532.206v16.3H415.362Z"/></g></svg>