<svg xmlns="http://www.w3.org/2000/svg" viewBox="0 0 496 496"><defs><style>.a{fill:#fff;}</style></defs><path class="a" d="M256,8C119.252,8,8,119.252,8,256S119.252,504,256,504,504,392.748,504,256,392.748,8,256,8ZM419.97,122.366A210.821,210.821,0,0,1,467.8,254.321c-6.984-1.477-77.018-15.682-147.5-6.818-5.752-14.041-11.181-26.393-18.617-41.614,78.321-31.977,113.818-77.482,118.284-83.523Zm-23.549-24.5c-3.81,5.427-35.7,48.286-111.021,76.519A1130.7,1130.7,0,0,0,206.36,50.381,211.283,211.283,0,0,1,396.421,97.87ZM165.941,64.62a1351.622,1351.622,0,0,1,78.537,122.509c-99.087,26.313-186.36,25.934-195.834,25.809A212.606,212.606,0,0,1,165.941,64.62ZM44.17,256.323c0-2.166.043-4.322.108-6.473,9.268.19,111.92,1.513,217.706-30.146,6.064,11.868,11.857,23.915,17.174,35.949-76.6,21.575-146.194,83.527-180.531,142.306A210.981,210.981,0,0,1,44.17,256.323Zm81.807,167.113C148.1,378.2,208.155,319.814,293.556,290.68c29.74,77.283,42.039,142.053,45.189,160.638a211.4,211.4,0,0,1-212.768-27.882Zm248.38,8.489c-2.171-12.886-13.446-74.9-41.152-151.033,66.38-10.626,124.7,6.768,131.947,9.055A212.2,212.2,0,0,1,374.357,431.925Z" transform="translate(-8 -8)"/></svg>