<svg xmlns="http://www.w3.org/2000/svg" viewBox="0 0 473.863 792.001"><defs><style>.a{fill:#fff;}</style></defs><g transform="translate(-159.069)"><path class="a" d="M614.582.128,494.2.184S491.758,0,487.371,0c-24.7,0-149.617,6.863-183.6,140.809-.532,1.486-11.965,35.014-12.148,112.988H177.42a18.358,18.358,0,0,0-18.351,18.351V377.374a18.358,18.358,0,0,0,18.351,18.351h124.9V773.649A18.358,18.358,0,0,0,320.669,792H463.68a18.36,18.36,0,0,0,18.352-18.352V396.109h125.3a18.358,18.358,0,0,0,18.352-18.351V272.148A18.358,18.358,0,0,0,607.333,253.8H482.287V208.634c0-30.078,19.086-62.21,72.672-62.21h59.623a18.357,18.357,0,0,0,18.35-18.351V18.479A18.346,18.346,0,0,0,614.582.128ZM596.23,109.722H554.959c-75.553,0-109.373,49.677-109.373,98.913v63.514a18.357,18.357,0,0,0,18.35,18.351H588.98v68.909H463.68a18.358,18.358,0,0,0-18.352,18.351V755.3H339.02V377.374a18.357,18.357,0,0,0-18.351-18.351h-124.9V290.5H310.117a18.362,18.362,0,0,0,18.352-18.718c-1.633-83.461,9.836-118.6,10.387-120.384C365.923,44.979,459.385,36.7,487.371,36.7c2.551,0,4.074.074,5.561.129h103.3v72.891Z"/></g></svg>