<svg xmlns="http://www.w3.org/2000/svg" viewBox="0 0 612 597.428"><defs><style>.a{fill:#fff;}</style></defs><g transform="translate(0 -7.286)"><path class="a" d="M513.381,84.865H457.223a33.326,33.326,0,0,0-33.281,33.281V174.29a33.327,33.327,0,0,0,33.281,33.281h56.158a33.327,33.327,0,0,0,33.281-33.281V118.146A33.326,33.326,0,0,0,513.381,84.865Zm4.138,89.425a4.135,4.135,0,0,1-4.138,4.138H457.223a4.136,4.136,0,0,1-4.139-4.138V118.146a4.144,4.144,0,0,1,4.139-4.138h56.158a4.146,4.146,0,0,1,4.138,4.138Zm-36.662-167H131.143C58.839,7.286,0,66.125,0,138.429V473.571c0,72.3,58.839,131.143,131.143,131.143H480.857c72.3,0,131.143-58.838,131.143-131.143V138.429C612,66.125,553.16,7.286,480.857,7.286Zm102,466.285a102.112,102.112,0,0,1-102,102H131.143a102.112,102.112,0,0,1-102-102V255h146.9a174,174,0,0,0-44.9,116.571c0,96.42,78.438,174.857,174.857,174.857S480.857,467.99,480.857,371.571A174,174,0,0,0,435.962,255H582.857ZM306,225.857c80.347,0,145.714,65.368,145.714,145.714S386.347,517.286,306,517.286,160.286,451.919,160.286,371.571,225.653,225.857,306,225.857Zm276.857,0H402.448a174.168,174.168,0,0,0-192.9,0H29.143V138.429a102.112,102.112,0,0,1,102-102H480.857a102.112,102.112,0,0,1,102,102ZM306,473.571a102,102,0,1,0-102-102A102.112,102.112,0,0,0,306,473.571Zm0-174.856a72.856,72.856,0,1,1-72.857,72.856A72.94,72.94,0,0,1,306,298.715Z"/></g></svg>