<svg xmlns="http://www.w3.org/2000/svg" viewBox="0 0 611.999 605.047"><defs><style>.a{fill:#fff;}</style></defs><g transform="translate(0 -3.477)"><path class="a" d="M133.572,172.485H17.639A14.369,14.369,0,0,0,3.275,186.849V592.12a14.369,14.369,0,0,0,14.364,14.363H133.587a14.37,14.37,0,0,0,14.364-14.363V186.85A14.373,14.373,0,0,0,133.572,172.485ZM119.208,577.756H31.989V201.214h87.219Zm337.616-410.2c-56.294,0-93.123,24.29-114.512,45.419l-2.643-27.507a14.373,14.373,0,0,0-14.293-12.985h-.287L219.4,174.511a14.38,14.38,0,0,0-14.077,15.011c1.322,29.59,1.279,64.179,1.221,104.226l-.015,300.413a14.368,14.368,0,0,0,14.364,14.363H336.84A14.368,14.368,0,0,0,351.2,594.161V359.881c0-11.965,1.034-20.613,3.088-25.77,7.226-18.4,31.07-37.419,58.448-37.419,35.465,0,56.623,26.976,56.623,72.181V594.16a14.368,14.368,0,0,0,14.364,14.363H597.635A14.368,14.368,0,0,0,612,594.16v-240C612,237.311,553.983,167.559,456.824,167.559ZM583.271,579.8h-85.18V368.873c0-61.307-33.512-100.909-85.352-100.909-41.139,0-74.593,28.671-85.15,55.575-3.491,8.719-5.114,20.283-5.114,36.342V579.8H235.256l.015-286.006c.043-34.015.086-64.122-.7-90.839l77.782-1.494,4.468,46.325a14.376,14.376,0,0,0,14.307,12.985h2.441a14.346,14.346,0,0,0,12.182-6.751c8.475-13.545,41.526-57.729,111.092-57.729,80.368,0,126.448,57.542,126.448,157.877V579.8h-.016ZM80.468,3.477C33.842,3.477,0,35.609,0,79.894c0,44.256,33.167,76.374,78.859,76.374,47.1,0,81.287-32.118,81.287-76.719C159.1,34.762,126.333,3.477,80.468,3.477ZM78.859,127.54c-29.519,0-50.131-19.593-50.131-47.646,0-28.527,20.8-47.689,51.74-47.689,30.265,0,50.274,18.846,50.95,47.689C131.418,108.393,110.288,127.54,78.859,127.54Z"/></g></svg>