<svg xmlns="http://www.w3.org/2000/svg" viewBox="0 0 611.982 500.413"><defs><style>.a{fill:#fff;}</style></defs><g transform="translate(0.001 -55.785)"><path class="a" d="M605.95,114.16a13.854,13.854,0,0,0-16.144.319c-3.287,2.455-8.183,4.632-13.9,6.532,18.82-23.342,19.1-38.944,18.82-42.786a13.87,13.87,0,0,0-21.9-10.263,121.72,121.72,0,0,1-66.308,22.884,130.506,130.506,0,0,0-89.414-35.061c-72.494,0-131.479,58.957-131.479,131.451a131.316,131.316,0,0,0,.929,15.672C165.581,199.9,67.457,85.867,66.472,84.7a13.86,13.86,0,0,0-22.552,1.97C13.131,139.306,25.7,189.179,46.8,224.06a13.871,13.871,0,0,0-20.443,11.983c-.9,55.3,24.354,88.443,49.832,107.748A13.879,13.879,0,0,0,68.2,360.726c17.711,57.127,59.318,78.539,88.513,86.557-33.48,23.605-74.893,29.139-106.362,29.139a219.094,219.094,0,0,1-34.077-2.414A13.871,13.871,0,0,0,5.531,498.751c63.146,47.475,139.4,57.447,192.253,57.447,41.773,0,70.8-6.1,72.271-6.422,271.306-63.354,281.611-306.618,281.181-350.943,50.857-46.725,58.957-64.963,60.233-69.512A13.857,13.857,0,0,0,605.95,114.16ZM527.9,182.6a13.877,13.877,0,0,0-4.521,11.234c.181,2.635,15.006,264.8-259.365,328.877-.264.055-27.6,5.756-66.239,5.756-36,0-83.658-4.924-129.135-24.881,41.635-2.664,92.687-15.438,129.412-56.059a13.9,13.9,0,0,0-10.374-23.176c-2.58,0-57.168-.652-84.49-51.4,12.648.4,24.118-1.471,32.62-5.34a13.881,13.881,0,0,0-2.871-26.2c-2.954-.637-65.795-14.951-77.126-81.231,9.847,3.759,21.83,6.366,33.425,4.66a13.873,13.873,0,0,0,6.962-24.284c-2.773-2.358-62.7-54.436-36.669-122.588,34.908,35.435,129.9,118.844,244.442,112.395a13.878,13.878,0,0,0,12.648-17.294A103.836,103.836,0,0,1,417.124,83.539a102.976,102.976,0,0,1,73.95,30.983,13.894,13.894,0,0,0,9.652,4.133l2.136.014a146.468,146.468,0,0,0,44.492-7.143,202.959,202.959,0,0,1-23.383,20.831,13.87,13.87,0,0,0,9.569,24.8c2.247-.18,12.121-1.04,24.34-3.231C550.183,161.8,540.378,171.273,527.9,182.6Z"/></g></svg>